HIERARCHY
ROOT Hips
{
	OFFSET 0.000000 0.000000 0.000000 
	CHANNELS 6 Xposition Yposition Zposition Zrotation Yrotation Xrotation
	JOINT LeftUpLeg
	{
		OFFSET 1.363060 -1.794630 0.839290 
		CHANNELS 3 Zrotation Yrotation Xrotation
		JOINT LeftLeg
		{
			OFFSET 2.448110 -6.726130 0.000000 
			CHANNELS 3 Zrotation Yrotation Xrotation
			JOINT LeftFoot
			{
				OFFSET 2.562200 -7.039590 0.000000 
				CHANNELS 3 Zrotation Yrotation Xrotation
				JOINT LeftToeBase
				{
					OFFSET 0.157640 -0.433110 2.322550 
					CHANNELS 3 Zrotation Yrotation Xrotation
					End Site
					{
						OFFSET 0.000000 0.000000 0.000000 
					}
				}
			}
		}
	}
	JOINT RightUpLeg
	{
		OFFSET -1.305520 -1.794630 0.839290 
		CHANNELS 3 Zrotation Yrotation Xrotation
		JOINT RightLeg
		{
			OFFSET -2.542530 -6.985550 0.000000 
			CHANNELS 3 Zrotation Yrotation Xrotation
			JOINT RightFoot
			{
				OFFSET -2.568260 -7.056230 0.000000 
				CHANNELS 3 Zrotation Yrotation Xrotation
				JOINT RightToeBase
				{
					OFFSET -0.164730 -0.452590 2.363150 
					CHANNELS 3 Zrotation Yrotation Xrotation
					End Site
					{
						OFFSET 0.000000 0.000000 0.000000 
					}
				}
			}
		}
	}
	JOINT Spine
	{
		OFFSET 0.028270 2.035590 -0.193380 
		CHANNELS 3 Zrotation Yrotation Xrotation
		JOINT Spine1
		{
			OFFSET 0.056720 2.048850 -0.042750 
			CHANNELS 3 Zrotation Yrotation Xrotation
			JOINT Neck1
			{
				OFFSET -0.054170 1.746240 0.172020 
				CHANNELS 3 Zrotation Yrotation Xrotation
				JOINT Head
				{
					OFFSET 0.104070 1.761360 -0.123970 
					CHANNELS 3 Zrotation Yrotation Xrotation
					End Site
					{
						OFFSET 0.000000 0.000000 0.000000 
					}
				}
			}
			JOINT LeftArm
			{
				OFFSET 3.362410 1.200890 -0.311210 
				CHANNELS 3 Zrotation Yrotation Xrotation
				JOINT LeftForeArm
				{
					OFFSET 4.983000 -0.000000 -0.000000 
					CHANNELS 3 Zrotation Yrotation Xrotation
					JOINT LeftHand
					{
						OFFSET 3.483560 -0.000000 -0.000000 
						CHANNELS 3 Zrotation Yrotation Xrotation
						JOINT LeftHandIndex1
						{
							OFFSET 0.715260 -0.000000 -0.000000 
							CHANNELS 3 Zrotation Yrotation Xrotation
							End Site
							{
								OFFSET 0.000000 0.000000 0.000000 
							}
						}
					}
				}
			}
			JOINT RightArm
			{
				OFFSET -3.136600 1.374050 -0.404650 
				CHANNELS 3 Zrotation Yrotation Xrotation
				JOINT RightForeArm
				{
					OFFSET -5.241900 -0.000000 -0.000000 
					CHANNELS 3 Zrotation Yrotation Xrotation
					JOINT RightHand
					{
						OFFSET -3.444170 -0.000000 -0.000000 
						CHANNELS 3 Zrotation Yrotation Xrotation
						JOINT RightHandIndex1
						{
							OFFSET -0.622530 -0.000000 -0.000000 
							CHANNELS 3 Zrotation Yrotation Xrotation
							End Site
							{
								OFFSET 0.000000 0.000000 0.000000 
							}
						}
					}
				}
			}
		}
	}
}
MOTION
Frames: 18
Frame Time: 0.041667
-1.022393 18.172055 6.023902 -4.832381 3.091958 0.203458 -8.808800 -4.626969 12.907477 -1.512614 -6.599287 -15.062876 -5.126463 21.375149 5.010394 0.541700 -4.715600 -13.099200 -0.142360 2.730892 -5.616527 0.852211 0.130874 1.380548 0.216889 -4.127653 13.071211 0.000000 0.000000 0.000000 3.865665 1.714672 20.697103 -3.604974 1.362946 -11.204940 -16.379628 11.178837 35.707369 -4.333400 3.029100 13.532300 -92.901262 -15.351275 49.579437 107.156663 -55.524489 -73.776024 -0.646723 0.534356 -79.999482 -7.125000 0.000000 0.000000 80.906703 12.989690 55.206099 -132.471861 44.797214 -96.366203 1.595907 0.918206 -11.362473 7.125000 0.000000 0.000000 
-1.023793 18.171455 6.025303 -4.790463 3.092272 0.212775 -8.849404 -4.687028 12.924156 -1.515920 -6.597032 -15.057083 -5.141969 21.412867 4.943421 0.566100 -4.819000 -13.393100 -0.142785 2.730878 -5.616240 0.852279 0.130995 1.380562 0.216923 -4.127528 13.071220 0.000000 0.000000 0.000000 3.816560 1.710383 20.707489 -3.571510 1.363188 -11.198114 -16.352340 11.168202 35.688783 -4.319200 3.025200 13.520600 -92.899561 -15.398391 49.576974 107.134729 -55.528998 -73.753511 -0.644868 0.535852 -79.979161 -7.125000 0.000000 0.000000 80.879091 12.966682 55.056579 -132.389144 44.835153 -96.298993 1.581487 0.877810 -10.733285 7.125000 0.000000 0.000000 
-1.024394 18.171254 6.026503 -4.772801 3.097048 0.226199 -8.863100 -4.741179 12.922851 -1.519470 -6.589047 -15.037187 -5.156272 21.437821 4.856991 0.576300 -4.861200 -13.513200 -0.143219 2.730897 -5.615878 0.852339 0.131167 1.380628 0.217037 -4.127337 13.071248 0.000000 0.000000 0.000000 3.774387 1.725742 20.697809 -3.568758 1.368939 -11.202153 -16.204214 11.083906 35.667588 -4.260400 2.999100 13.482500 -92.898311 -15.400516 49.599714 107.141375 -55.527710 -73.762847 -0.647497 0.534766 -80.034409 -7.125000 0.000000 0.000000 80.843764 12.946610 54.771005 -132.160405 44.943126 -96.109540 1.566593 0.775543 -10.006176 7.125000 0.000000 0.000000 
-1.024093 18.171254 6.027104 -4.770746 3.101272 0.230801 -8.862620 -4.731161 12.909095 -1.519986 -6.583536 -15.024289 -5.152866 21.430527 4.879097 0.573700 -4.850700 -13.483100 -0.143616 2.730982 -5.615607 0.852384 0.131357 1.380734 0.217161 -4.127112 13.071275 0.000000 0.000000 0.000000 3.742031 1.742387 20.678455 -3.579793 1.372311 -11.217378 -16.074286 11.046395 35.741506 -4.213900 2.992900 13.494300 -92.910655 -15.395700 49.629304 107.162940 -55.524229 -73.785180 -0.649843 0.532115 -80.083455 -7.125000 0.000000 0.000000 80.810241 12.908627 54.627148 -132.037453 45.001485 -96.006858 1.558352 0.716978 -9.558741 7.125000 0.000000 0.000000 
-1.024193 18.170754 6.027804 -4.781482 3.106466 0.224103 -8.853073 -4.734765 12.911209 -1.520832 -6.578864 -15.015100 -5.151925 21.440192 4.925905 0.558400 -4.786700 -13.301100 -0.143827 2.731145 -5.615309 0.852365 0.131616 1.380840 0.217327 -4.126853 13.071389 0.000000 0.000000 0.000000 3.752242 1.746920 20.700139 -3.592714 1.374941 -11.219841 -16.019741 11.016241 35.737957 -4.190400 2.980700 13.487100 -92.932649 -15.420004 49.653484 107.144568 -55.527854 -73.764854 -0.650020 0.532041 -80.075430 -7.125000 0.000000 0.000000 80.769136 12.837476 54.866521 -132.167345 44.939253 -96.121071 1.581577 0.754798 -9.877410 7.125000 0.000000 0.000000 
-1.024794 18.170454 6.028604 -4.804018 3.110257 0.223721 -8.829072 -4.790009 12.923126 -1.522453 -6.574509 -15.008143 -5.165156 21.476013 4.885288 0.542700 -4.719800 -13.111000 -0.144102 2.731302 -5.615121 0.852366 0.131838 1.380944 0.217489 -4.126615 13.071463 0.000000 0.000000 0.000000 3.754617 1.756429 20.725874 -3.599340 1.380238 -11.211785 -16.080498 11.031067 35.731153 -4.217600 2.983400 13.497700 -92.942698 -15.461903 49.685738 107.099658 -55.535195 -73.720254 -0.649863 0.532844 -80.082930 -7.125000 0.000000 0.000000 80.744983 12.767586 55.298135 -132.424279 44.815919 -96.340784 1.619567 0.838463 -10.740175 7.125000 0.000000 0.000000 
-1.025794 18.171254 6.029405 -4.770885 3.117320 0.236448 -8.856693 -4.869192 12.940447 -1.525185 -6.575300 -15.011873 -5.186928 21.527170 4.782669 0.536600 -4.693600 -13.036800 -0.144865 2.731405 -5.614690 0.852462 0.132139 1.381043 0.217594 -4.126290 13.071503 0.000000 0.000000 0.000000 3.695082 1.766981 20.748750 -3.561711 1.387470 -11.208073 -16.157432 11.052304 35.736601 -4.251000 2.987000 13.516400 -92.942823 -15.480017 49.716302 107.113619 -55.533746 -73.732623 -0.648963 0.532098 -80.090198 -7.125000 0.000000 0.000000 80.699959 12.745242 55.525911 -132.592471 44.736380 -96.482570 1.629973 0.883202 -11.140959 7.125000 0.000000 0.000000 
-1.025994 18.171755 6.030105 -4.737040 3.144214 0.247086 -8.893180 -4.917329 12.949991 -1.527142 -6.578734 -15.021702 -5.198108 21.563616 4.758962 0.543000 -4.721100 -13.114700 -0.144548 2.731133 -5.614832 0.852466 0.131869 1.380855 0.217396 -4.126611 13.071440 0.000000 0.000000 0.000000 3.704160 1.751348 20.759444 -3.525420 1.386122 -11.212932 -16.076541 11.022482 35.732284 -4.211900 2.975300 13.505600 -92.974977 -15.455824 49.720468 107.157865 -55.528679 -73.772399 -0.647773 0.530978 -80.052671 -7.125000 0.000000 0.000000 80.596572 12.729667 55.582411 -132.664847 44.704758 -96.544645 1.620081 0.889895 -11.005864 7.125000 0.000000 0.000000 
-1.025594 18.171755 6.030605 -4.752841 3.175554 0.253971 -8.879979 -4.919838 12.938588 -1.525779 -6.582507 -15.034206 -5.192437 21.560265 4.814989 0.552000 -4.759400 -13.223600 -0.144111 2.731030 -5.614975 0.852409 0.131719 1.380763 0.217298 -4.126802 13.071449 0.000000 0.000000 0.000000 3.744286 1.729723 20.765721 -3.529321 1.377739 -11.204313 -16.047908 11.014310 35.682525 -4.192900 2.972900 13.476800 -93.028164 -15.446825 49.718465 107.168261 -55.528400 -73.779789 -0.647606 0.530312 -79.999261 -7.125000 0.000000 0.000000 80.509265 12.711382 55.653599 -132.735718 44.672439 -96.608288 1.620112 0.893049 -10.862610 7.125000 0.000000 0.000000 
-1.025194 18.172455 6.030605 -4.763536 3.193896 0.252737 -8.870130 -4.911772 12.943638 -1.523038 -6.591773 -15.058776 -5.186412 21.550704 4.846996 0.539900 -4.707800 -13.077000 -0.143659 2.730883 -5.615277 0.852371 0.131467 1.380648 0.217163 -4.127078 13.071394 0.000000 0.000000 0.000000 3.776599 1.720466 20.760506 -3.533413 1.374421 -11.210763 -16.096383 11.036667 35.644566 -4.205900 2.978900 13.461900 -93.088546 -15.444876 49.732013 107.164533 -55.530337 -73.774833 -0.648468 0.530566 -79.956507 -7.125000 0.000000 0.000000 80.453572 12.699222 55.732520 -132.788990 44.647676 -96.660091 1.637339 0.889607 -10.669066 7.125000 0.000000 0.000000 
-1.024494 18.173455 6.030305 -4.787482 3.199874 0.246946 -8.850301 -4.924884 12.966309 -1.520914 -6.601070 -15.085102 -5.192549 21.572003 4.830064 0.523600 -4.637100 -12.876500 -0.143245 2.730821 -5.615515 0.852319 0.131297 1.380577 0.217068 -4.127270 13.071372 0.000000 0.000000 0.000000 3.815196 1.714400 20.758157 -3.547031 1.371033 -11.230587 -16.127005 11.044429 35.643037 -4.216300 2.978700 13.465300 -93.113843 -15.441713 49.748939 107.154804 -55.532383 -73.766175 -0.649950 0.530700 -79.911655 -7.125000 0.000000 0.000000 80.410835 12.722141 55.810159 -132.829744 44.631126 -96.695748 1.647033 0.903383 -10.319748 7.125000 0.000000 0.000000 
-1.023593 18.173856 6.030005 -4.829633 3.205130 0.251124 -8.808784 -4.962671 12.970021 -1.520264 -6.602089 -15.094757 -5.203650 21.608728 4.810730 0.528600 -4.659200 -12.939200 -0.144385 2.731442 -5.614527 0.852343 0.132204 1.381002 0.217469 -4.126308 13.071656 0.000000 0.000000 0.000000 3.775237 1.716032 20.779420 -3.573841 1.364321 -11.213932 -16.220476 11.042321 35.608649 -4.262900 2.975200 13.459300 -93.080972 -15.444943 49.766600 107.139197 -55.533108 -73.753958 -0.651453 0.529554 -79.892744 -7.125000 0.000000 0.000000 80.374952 12.786188 55.907920 -132.873124 44.613977 -96.725141 1.637959 0.940968 -9.956577 7.125000 0.000000 0.000000 
-1.022993 18.173756 6.029805 -4.835799 3.218205 0.254212 -8.800042 -4.989566 12.963728 -1.520617 -6.599181 -15.093376 -5.206126 21.626031 4.835781 0.542400 -4.718400 -13.107100 -0.145804 2.731969 -5.613445 0.852438 0.133100 1.381403 0.217823 -4.125348 13.071889 0.000000 0.000000 0.000000 3.697238 1.728681 20.790298 -3.575067 1.363524 -11.203765 -16.321580 11.036833 35.598919 -4.313000 2.968200 13.461400 -93.066900 -15.435798 49.806473 107.106741 -55.537332 -73.723761 -0.652429 0.528993 -79.895851 -7.125000 0.000000 0.000000 80.294811 12.870321 55.934340 -132.780839 44.663606 -96.638406 1.623148 0.939586 -9.500779 7.125000 0.000000 0.000000 
-1.022693 18.173355 6.029105 -4.795770 3.234105 0.244511 -8.835466 -5.008160 12.970149 -1.522067 -6.598064 -15.090893 -5.206729 21.634265 4.852904 0.537700 -4.698400 -13.050400 -0.147263 2.732482 -5.612183 0.852526 0.134073 1.381765 0.218124 -4.124354 13.072184 0.000000 0.000000 0.000000 3.627184 1.724252 20.837552 -3.541991 1.360575 -11.206813 -16.373009 11.048110 35.598153 -4.334600 2.967200 13.473500 -93.076949 -15.454251 49.823044 107.075934 -55.542792 -73.695217 -0.653105 0.528256 -79.875111 -7.125000 0.000000 0.000000 80.178866 12.996566 55.882149 -132.562889 44.774460 -96.443143 1.597977 0.889255 -8.765743 7.125000 0.000000 0.000000 
-1.022593 18.173455 6.028104 -4.758729 3.241448 0.243123 -8.868786 -5.018415 12.969184 -1.523432 -6.598759 -15.090381 -5.209693 21.640830 4.839161 0.535100 -4.687400 -13.019100 -0.148324 2.732852 -5.611168 0.852583 0.134819 1.382018 0.218323 -4.123610 13.072431 0.000000 0.000000 0.000000 3.575218 1.705687 20.881776 -3.506893 1.352403 -11.200497 -16.408400 11.056944 35.570581 -4.345400 2.965700 13.468800 -93.073364 -15.469803 49.798389 107.087560 -55.541633 -73.709501 -0.653213 0.526278 -79.854699 -7.125000 0.000000 0.000000 80.044322 13.098346 56.086671 -132.370620 44.871324 -96.267434 1.599970 0.839435 -8.260107 7.125000 0.000000 0.000000 
-1.022593 18.174056 6.026603 -4.775747 3.225361 0.248197 -8.848390 -4.998478 12.952116 -1.522375 -6.600707 -15.096058 -5.211370 21.646159 4.838557 0.542800 -4.720200 -13.112100 -0.148879 2.733062 -5.610545 0.852607 0.135242 1.382181 0.218436 -4.123181 13.072576 0.000000 0.000000 0.000000 3.549935 1.702135 20.884022 -3.506387 1.346326 -11.204277 -16.396184 11.046556 35.578487 -4.338800 2.959400 13.467200 -93.059508 -15.466763 49.783232 107.083302 -55.543011 -73.708442 -0.653300 0.525398 -79.865843 -7.125000 0.000000 0.000000 79.849325 13.217915 56.561761 -132.118014 44.999624 -96.035279 1.637998 0.801709 -8.010290 7.125000 0.000000 0.000000 
-1.022493 18.173856 6.024502 -4.819043 3.192711 0.232510 -8.801587 -4.961695 12.951564 -1.519651 -6.605966 -15.109921 -5.211914 21.648532 4.839162 0.537400 -4.697100 -13.046700 -0.149803 2.733621 -5.609370 0.852588 0.136162 1.382553 0.218741 -4.122259 13.072933 0.000000 0.000000 0.000000 3.546829 1.699521 20.913763 -3.525320 1.338379 -11.213510 -16.315507 11.049436 35.609007 -4.304200 2.964400 13.477200 -93.037019 -15.469416 49.777229 107.071798 -55.544706 -73.700065 -0.653410 0.523823 -79.895368 -7.125000 0.000000 0.000000 79.580330 13.481464 57.113846 -131.891993 45.123535 -95.812593 1.655631 0.825053 -7.611768 7.125000 0.000000 0.000000 
-1.022092 18.173756 6.021901 -4.855657 3.148273 0.205235 -8.776469 -4.869743 12.958448 -1.515783 -6.617458 -15.129038 -5.198734 21.602848 4.856068 0.528000 -4.656500 -12.931300 -0.148575 2.733431 -5.609551 0.852385 0.135912 1.382323 0.218414 -4.122660 13.073068 0.000000 0.000000 0.000000 3.714763 1.676939 20.965266 -3.523748 1.336702 -11.220938 -16.235350 11.075491 35.634958 -4.255700 2.971500 13.490800 -93.034520 -15.458799 49.804365 107.097803 -55.540798 -73.727209 -0.653092 0.520935 -79.899418 -7.125000 0.000000 0.000000 79.173644 13.872648 57.756530 -131.752558 45.216073 -95.654825 1.649450 0.901966 -6.957258 7.125000 0.000000 0.000000 
